<?xml version="1.0" encoding="UTF-8"?>
<svg xmlns="http://www.w3.org/2000/svg" xmlns:xlink="http://www.w3.org/1999/xlink" width="256pt" height="256pt" viewBox="0 0 256 256" version="1.1">
<g id="surface1">
<path style=" stroke:none;fill-rule:nonzero;fill:rgb(92.54902%,36.470588%,34.117647%);fill-opacity:1;" d="M 127.753906 0.242188 C 93.386719 0.242188 61.808594 13.339844 37.453125 37.695312 C 13.097656 62.050781 0 93.628906 0 128 C 0 162.371094 13.097656 193.945312 37.453125 218.300781 C 57.90625 238.753906 83.46875 251.269531 112.398438 254.992188 C 123.757812 256.453125 141.171875 255.714844 153.585938 253.238281 C 198.277344 244.335938 236.460938 209.71875 249.839844 165.976562 C 263.878906 120.082031 251.835938 71.472656 218.058594 37.695312 C 193.703125 13.339844 162.125 0.242188 127.753906 0.242188 Z M 126.59375 10.261719 C 145.082031 10.09375 163.558594 14.28125 180.398438 22.71875 C 203.476562 34.28125 221.472656 52.277344 233.035156 75.359375 C 249.65625 108.53125 249.65625 147.464844 233.035156 180.636719 C 227.238281 192.214844 221.460938 200.351562 212.257812 209.910156 C 192.785156 230.140625 167.003906 242.472656 138.328125 245.273438 C 116.941406 247.363281 94.871094 243.175781 75.117188 233.277344 C 63.539062 227.476562 55.398438 221.703125 45.839844 212.5 C 8.96875 177.003906 -0.527344 121.269531 22.476562 75.359375 C 36.300781 47.761719 60.054688 26.882812 89.140625 16.757812 C 101.285156 12.53125 113.941406 10.378906 126.59375 10.261719 Z M 126.59375 10.261719 "/>
<path style=" stroke:none;fill-rule:nonzero;fill:rgb(92.54902%,36.470588%,34.117647%);fill-opacity:1;" d="M 119.363281 38.339844 C 108.878906 38.339844 100.378906 46.839844 100.378906 57.328125 C 100.378906 65.929688 106.117188 73.207031 113.964844 75.539062 L 113.964844 78.921875 L 76.765625 78.921875 L 76.765625 116.890625 L 113.964844 116.890625 L 113.964844 124.957031 L 90.886719 148.035156 L 113.964844 171.113281 L 113.964844 179.894531 C 106.117188 182.222656 100.378906 189.5 100.378906 198.105469 C 100.378906 208.589844 108.878906 217.089844 119.363281 217.089844 C 129.847656 217.089844 138.347656 208.589844 138.347656 198.105469 C 138.347656 189.5 132.609375 182.222656 124.761719 179.894531 L 124.761719 171.113281 L 141.90625 153.96875 L 196.308594 153.96875 L 196.308594 86.277344 L 185.511719 86.277344 L 185.511719 86.515625 L 161.957031 100.574219 L 161.957031 78.921875 L 124.761719 78.921875 L 124.761719 75.539062 C 132.605469 73.207031 138.347656 65.929688 138.347656 57.328125 C 138.347656 46.839844 129.851562 38.339844 119.363281 38.339844 Z M 161.960938 101.167969 L 185.511719 114.335938 L 185.511719 143.167969 L 142.972656 143.167969 L 124.761719 124.957031 L 124.761719 116.886719 L 161.960938 116.886719 Z M 161.960938 101.167969 "/>
</g>
</svg>
